<mxfile host="app.diagrams.net" modified="2023-08-29T02:01:24.964Z" agent="Mozilla/5.0 (Windows NT 10.0; Win64; x64) AppleWebKit/537.36 (KHTML, like Gecko) Chrome/116.0.0.0 Safari/537.36" version="21.6.9" etag="3CYGyfRbhDwD9G7Q96ga" type="github">
  <diagram name="Halaman-1" id="ILxLC-nx-cjLMd6qp_qD">
    <mxGraphModel>
      <root>
        <mxCell id="0" />
        <mxCell id="1" parent="0" />
      </root>
    </mxGraphModel>
  </diagram>
</mxfile>
